<mxfile host="app.diagrams.net" modified="2023-12-24T14:11:38.389Z" agent="Mozilla/5.0 (Windows NT 10.0; Win64; x64) AppleWebKit/537.36 (KHTML, like Gecko) Chrome/120.0.0.0 Safari/537.36" etag="gDdXXi_FPP9j6xC74Ocm" version="22.1.11" type="device" pages="2">
  <diagram name="‫עמוד-1‬" id="7ujGVMIC4xtKWr2U2t12">
    <mxGraphModel dx="1914" dy="966" grid="1" gridSize="10" guides="1" tooltips="1" connect="1" arrows="1" fold="1" page="1" pageScale="1" pageWidth="827" pageHeight="1169" math="0" shadow="0">
      <root>
        <mxCell id="0" />
        <mxCell id="1" parent="0" />
        <mxCell id="sE4PfnkllYC4l5VLcqRY-1" value="" style="rounded=0;whiteSpace=wrap;html=1;container=0;" parent="1" vertex="1">
          <mxGeometry x="903.87" y="188.39999999999998" width="406.78" height="311.6" as="geometry" />
        </mxCell>
        <mxCell id="bLk-eUr5ARzQPCFEUJqk-20" value="&lt;h1 style=&quot;font-size: 38px;&quot;&gt;התחברות למערכת&amp;nbsp;&lt;/h1&gt;" style="text;html=1;strokeColor=none;fillColor=none;spacing=5;spacingTop=-20;whiteSpace=wrap;overflow=hidden;rounded=0;fontSize=38;align=center;" parent="1" vertex="1">
          <mxGeometry x="470" y="20" width="720" height="60" as="geometry" />
        </mxCell>
        <mxCell id="k2CcHp0lFz3wV-T5hJr8-212" style="edgeStyle=orthogonalEdgeStyle;orthogonalLoop=1;jettySize=auto;html=1;entryX=1.044;entryY=0.472;entryDx=0;entryDy=0;entryPerimeter=0;startArrow=classic;startFill=1;rounded=1;" parent="1" edge="1">
          <mxGeometry relative="1" as="geometry">
            <mxPoint x="952.8095441890132" y="266.5" as="sourcePoint" />
            <mxPoint x="744.3063414634144" y="266.2847999999999" as="targetPoint" />
          </mxGeometry>
        </mxCell>
        <mxCell id="0n8_JUH1gaFvWZES4L4q-1" style="edgeStyle=orthogonalEdgeStyle;rounded=0;orthogonalLoop=1;jettySize=auto;html=1;entryX=0.5;entryY=0;entryDx=0;entryDy=0;startArrow=classic;startFill=1;" parent="1" source="k2CcHp0lFz3wV-T5hJr8-191" target="sE4PfnkllYC4l5VLcqRY-2" edge="1">
          <mxGeometry relative="1" as="geometry" />
        </mxCell>
        <mxCell id="k2CcHp0lFz3wV-T5hJr8-191" value="לוגיקה" style="ellipse;whiteSpace=wrap;html=1;fillColor=#e1d5e7;strokeColor=#9673a6;" parent="1" vertex="1">
          <mxGeometry x="1076.369315068493" y="257.88968058968055" width="84.24657534246573" height="71.94103194103195" as="geometry" />
        </mxCell>
        <mxCell id="k2CcHp0lFz3wV-T5hJr8-193" style="edgeStyle=orthogonalEdgeStyle;orthogonalLoop=1;jettySize=auto;html=1;entryX=0.5;entryY=0;entryDx=0;entryDy=0;startArrow=classic;startFill=1;rounded=1;" parent="1" source="k2CcHp0lFz3wV-T5hJr8-194" target="k2CcHp0lFz3wV-T5hJr8-191" edge="1">
          <mxGeometry relative="1" as="geometry" />
        </mxCell>
        <mxCell id="k2CcHp0lFz3wV-T5hJr8-194" value="הצפנה\פענוח" style="ellipse;whiteSpace=wrap;html=1;fillColor=#ffe6cc;strokeColor=#d79b00;" parent="1" vertex="1">
          <mxGeometry x="1177.4669863013696" y="194.0986486486486" width="84.24657534246573" height="71.94103194103195" as="geometry" />
        </mxCell>
        <mxCell id="k2CcHp0lFz3wV-T5hJr8-190" style="edgeStyle=orthogonalEdgeStyle;rounded=1;orthogonalLoop=1;jettySize=auto;html=1;entryX=1;entryY=0.5;entryDx=0;entryDy=0;startArrow=classic;startFill=1;" parent="1" source="k2CcHp0lFz3wV-T5hJr8-191" edge="1">
          <mxGeometry relative="1" as="geometry">
            <mxPoint x="1037.0560273972392" y="266.42476658476653" as="targetPoint" />
          </mxGeometry>
        </mxCell>
        <mxCell id="k2CcHp0lFz3wV-T5hJr8-210" value="&lt;h1 style=&quot;font-size: 30px;&quot;&gt;לקוח&lt;/h1&gt;" style="text;html=1;strokeColor=none;fillColor=none;spacing=5;spacingTop=-20;whiteSpace=wrap;overflow=hidden;rounded=0;fontSize=30;align=center;" parent="1" vertex="1">
          <mxGeometry x="952.8076712328766" y="120.00270270270272" width="308.90410958904107" height="59.95085995085995" as="geometry" />
        </mxCell>
        <mxCell id="SMqA4ybugY09nhs5ZCD9-6" style="edgeStyle=orthogonalEdgeStyle;orthogonalLoop=1;jettySize=auto;html=1;curved=1;startArrow=classic;startFill=1;" parent="1" source="SMqA4ybugY09nhs5ZCD9-4" target="k2CcHp0lFz3wV-T5hJr8-191" edge="1">
          <mxGeometry relative="1" as="geometry" />
        </mxCell>
        <mxCell id="yqgyNGWHs7M9jh6-OEPn-2" style="edgeStyle=orthogonalEdgeStyle;rounded=0;orthogonalLoop=1;jettySize=auto;html=1;entryX=0.5;entryY=0;entryDx=0;entryDy=0;startArrow=classic;startFill=1;" edge="1" parent="1" source="SMqA4ybugY09nhs5ZCD9-4" target="yqgyNGWHs7M9jh6-OEPn-1">
          <mxGeometry relative="1" as="geometry" />
        </mxCell>
        <mxCell id="SMqA4ybugY09nhs5ZCD9-4" value="ממשק משתמש" style="ellipse;whiteSpace=wrap;html=1;aspect=fixed;fillColor=#0050ef;fontColor=#ffffff;strokeColor=#001DBC;" parent="1" vertex="1">
          <mxGeometry x="1230" y="263" width="80" height="80" as="geometry" />
        </mxCell>
        <mxCell id="SMqA4ybugY09nhs5ZCD9-7" style="edgeStyle=orthogonalEdgeStyle;orthogonalLoop=1;jettySize=auto;html=1;curved=1;startArrow=classic;startFill=1;" parent="1" source="SMqA4ybugY09nhs5ZCD9-5" target="SMqA4ybugY09nhs5ZCD9-4" edge="1">
          <mxGeometry relative="1" as="geometry" />
        </mxCell>
        <mxCell id="SMqA4ybugY09nhs5ZCD9-5" value="Actor" style="shape=umlActor;verticalLabelPosition=bottom;verticalAlign=top;html=1;outlineConnect=0;" parent="1" vertex="1">
          <mxGeometry x="1490" y="273" width="30" height="60" as="geometry" />
        </mxCell>
        <mxCell id="k2CcHp0lFz3wV-T5hJr8-155" value="" style="rounded=0;whiteSpace=wrap;html=1;container=0;" parent="1" vertex="1">
          <mxGeometry x="340" y="188.4" width="406.78" height="311.6" as="geometry" />
        </mxCell>
        <mxCell id="k2CcHp0lFz3wV-T5hJr8-156" value="&lt;h1 style=&quot;font-size: 28px;&quot;&gt;שרת&lt;/h1&gt;" style="text;html=1;strokeColor=none;fillColor=none;spacing=5;spacingTop=-20;whiteSpace=wrap;overflow=hidden;rounded=0;fontSize=28;align=center;container=0;" parent="1" vertex="1">
          <mxGeometry x="340" y="120" width="399.5121951219512" height="56.99999999999999" as="geometry" />
        </mxCell>
        <mxCell id="k2CcHp0lFz3wV-T5hJr8-160" value="לוגיקה" style="ellipse;whiteSpace=wrap;html=1;fillColor=#e1d5e7;strokeColor=#9673a6;container=0;" parent="1" vertex="1">
          <mxGeometry x="485.2771618625277" y="262.5" width="108.95787139689578" height="62.699999999999996" as="geometry" />
        </mxCell>
        <mxCell id="k2CcHp0lFz3wV-T5hJr8-161" style="edgeStyle=orthogonalEdgeStyle;orthogonalLoop=1;jettySize=auto;html=1;curved=1;startArrow=classic;startFill=1;" parent="1" source="k2CcHp0lFz3wV-T5hJr8-162" target="k2CcHp0lFz3wV-T5hJr8-160" edge="1">
          <mxGeometry relative="1" as="geometry" />
        </mxCell>
        <mxCell id="k2CcHp0lFz3wV-T5hJr8-162" value="פרוטוקול" style="ellipse;whiteSpace=wrap;html=1;fillColor=#f8cecc;strokeColor=#b85450;container=0;" parent="1" vertex="1">
          <mxGeometry x="349.99964523281596" y="336.6" width="108.95787139689578" height="68.39999999999999" as="geometry" />
        </mxCell>
        <mxCell id="k2CcHp0lFz3wV-T5hJr8-167" value="הצפנה\פענוח" style="ellipse;whiteSpace=wrap;html=1;fillColor=#ffe6cc;strokeColor=#d79b00;container=0;" parent="1" vertex="1">
          <mxGeometry x="358.159645232816" y="194.1" width="108.95787139689578" height="68.39999999999999" as="geometry" />
        </mxCell>
        <mxCell id="k2CcHp0lFz3wV-T5hJr8-168" style="edgeStyle=orthogonalEdgeStyle;rounded=1;orthogonalLoop=1;jettySize=auto;html=1;entryX=0.964;entryY=0.57;entryDx=0;entryDy=0;entryPerimeter=0;startArrow=classic;startFill=1;" parent="1" target="k2CcHp0lFz3wV-T5hJr8-160" edge="1">
          <mxGeometry relative="1" as="geometry">
            <mxPoint x="630.5543237250554" y="268.20000000000005" as="sourcePoint" />
          </mxGeometry>
        </mxCell>
        <mxCell id="k2CcHp0lFz3wV-T5hJr8-158" style="edgeStyle=orthogonalEdgeStyle;rounded=1;orthogonalLoop=1;jettySize=auto;html=1;entryX=0.5;entryY=1;entryDx=0;entryDy=0;startArrow=classicThin;startFill=1;" parent="1" source="k2CcHp0lFz3wV-T5hJr8-160" target="k2CcHp0lFz3wV-T5hJr8-167" edge="1">
          <mxGeometry relative="1" as="geometry" />
        </mxCell>
        <mxCell id="sE4PfnkllYC4l5VLcqRY-2" value="פרוטוקול" style="ellipse;whiteSpace=wrap;html=1;fillColor=#f8cecc;strokeColor=#b85450;container=0;" parent="1" vertex="1">
          <mxGeometry x="1064.009645232816" y="390" width="108.95787139689578" height="68.39999999999999" as="geometry" />
        </mxCell>
        <mxCell id="YJ3eeJoRHvTMqxS5hBi6-2" style="edgeStyle=orthogonalEdgeStyle;rounded=0;orthogonalLoop=1;jettySize=auto;html=1;entryX=1;entryY=1;entryDx=0;entryDy=0;startArrow=classic;startFill=1;" parent="1" source="YJ3eeJoRHvTMqxS5hBi6-1" target="k2CcHp0lFz3wV-T5hJr8-160" edge="1">
          <mxGeometry relative="1" as="geometry" />
        </mxCell>
        <mxCell id="YJ3eeJoRHvTMqxS5hBi6-1" value="רשימת קבצים" style="rounded=1;whiteSpace=wrap;html=1;fillColor=#fff2cc;strokeColor=#d6b656;container=0;" parent="1" vertex="1">
          <mxGeometry x="539.9965188470067" y="400" width="128.93348115299335" height="22.799999999999997" as="geometry" />
        </mxCell>
        <mxCell id="yqgyNGWHs7M9jh6-OEPn-1" value="&lt;font style=&quot;font-size: 17px;&quot;&gt;תקינות&lt;/font&gt;" style="ellipse;whiteSpace=wrap;html=1;aspect=fixed;" vertex="1" parent="1">
          <mxGeometry x="1230" y="378.4" width="80" height="80" as="geometry" />
        </mxCell>
        <mxCell id="yqgyNGWHs7M9jh6-OEPn-3" value="&lt;font style=&quot;font-size: 20px;&quot;&gt;תקשורת רגילה&amp;nbsp;&lt;/font&gt;" style="ellipse;whiteSpace=wrap;html=1;aspect=fixed;fillColor=#d5e8d4;strokeColor=#82b366;" vertex="1" parent="1">
          <mxGeometry x="952.81" y="225.25" width="85.91" height="85.91" as="geometry" />
        </mxCell>
        <mxCell id="yqgyNGWHs7M9jh6-OEPn-4" value="&lt;font style=&quot;font-size: 20px;&quot;&gt;תקשורת רגילה&amp;nbsp;&lt;/font&gt;" style="ellipse;whiteSpace=wrap;html=1;aspect=fixed;fillColor=#d5e8d4;strokeColor=#82b366;" vertex="1" parent="1">
          <mxGeometry x="630" y="215.69" width="109.51" height="109.51" as="geometry" />
        </mxCell>
      </root>
    </mxGraphModel>
  </diagram>
  <diagram id="w-Ln1UiFjOK_LUurywYE" name="‫עמוד-2‬">
    <mxGraphModel dx="798" dy="411" grid="1" gridSize="10" guides="1" tooltips="1" connect="1" arrows="1" fold="1" page="1" pageScale="1" pageWidth="827" pageHeight="1169" math="0" shadow="0">
      <root>
        <mxCell id="0" />
        <mxCell id="1" parent="0" />
      </root>
    </mxGraphModel>
  </diagram>
</mxfile>
